<svg width="1020" height="669" viewBox="0 0 1020 669" fill="none" xmlns="http://www.w3.org/2000/svg">
<g id="signIn 1">
<path id="Vector" opacity="0.1" d="M19.75 213.04C12.07 236.29 34.65 257.2 52.41 274.04C76.7196 297.142 95.901 325.097 108.71 356.09C116.43 374.82 121.8 394.97 120.36 415.18C116.28 472.5 62.3 510.69 19.17 548.66C13.06 554.09 6.94999 559.77 3.38999 567.09C-8.04001 590.58 11.39 617.65 32.79 632.63C109 685.95 219 670.09 292.92 613.64C331.2 584.4 364.1 544.64 410.49 531.64C440.15 523.37 471.63 527.29 502.32 529.84C548.337 533.653 594.566 534.201 640.66 531.48C656.84 530.48 673.76 528.92 687.31 520.03C721.62 497.55 715.83 444.25 740.59 411.55C758.39 388.05 788.8 378.99 815.27 366C856.013 345.896 890.01 314.348 913.1 275.22C934.35 239.05 945.36 197.93 956.1 157.39C964.2 126.93 972.33 95.03 965.47 64.26C958.61 33.49 931.53 4.76001 900.13 7.46001C876.02 9.53001 856.84 28.58 833.62 35.4C778 51.78 724 -5.10999 666.3 0.380012C629.97 3.83001 600.67 31.38 578.52 60.38C556.37 89.38 537.62 122.03 508.37 143.87C462.87 177.87 400.53 179.07 344.83 168.06C289.13 157.05 235.69 135.38 179.37 128.16C146.19 123.91 120.76 143.68 90.88 154.55C63.46 164.53 29.91 182.29 19.75 213.04Z" fill="#F1CF97"/>
<g id="Group" opacity="0.5">
<path id="Vector_2" opacity="0.5" d="M708.28 68.4C710.975 68.4 713.559 69.4704 715.464 71.3758C717.37 73.2812 718.44 75.8654 718.44 78.56V361.06H698.12V78.55C698.123 75.8571 699.194 73.2755 701.099 71.3723C703.004 69.469 705.587 68.4 708.28 68.4V68.4Z" fill="#F1CF97"/>
<path id="Vector_3" opacity="0.5" d="M931.21 68.4C933.905 68.4 936.489 69.4704 938.394 71.3758C940.3 73.2812 941.37 75.8654 941.37 78.56V361.06H921V78.55C921.001 77.2124 921.267 75.8882 921.781 74.6534C922.295 73.4186 923.048 72.2976 923.997 71.3545C924.946 70.4115 926.071 69.665 927.309 69.158C928.547 68.651 929.872 68.3934 931.21 68.4V68.4Z" fill="#F1CF97"/>
<path id="Vector_4" opacity="0.5" d="M990.51 131.55C996.121 131.55 1000.67 127.001 1000.67 121.39C1000.67 115.779 996.121 111.23 990.51 111.23L648.99 111.23C643.379 111.23 638.83 115.779 638.83 121.39C638.83 127.001 643.379 131.55 648.99 131.55L990.51 131.55Z" fill="#F1CF97"/>
<path id="Vector_5" opacity="0.5" d="M692.08 91.18C692.08 86.7838 688.516 83.22 684.12 83.22C679.724 83.22 676.16 86.7838 676.16 91.18V151.58C676.16 155.976 679.724 159.54 684.12 159.54C688.516 159.54 692.08 155.976 692.08 151.58V91.18Z" fill="#F1CF97"/>
<path id="Vector_6" opacity="0.5" d="M676.16 98.32C676.16 93.9238 672.596 90.36 668.2 90.36C663.804 90.36 660.24 93.9238 660.24 98.32V144.45C660.24 148.846 663.804 152.41 668.2 152.41C672.596 152.41 676.16 148.846 676.16 144.45V98.32Z" fill="#F1CF97"/>
<path id="Vector_7" opacity="0.5" d="M947.41 151.58C947.41 155.976 950.974 159.54 955.37 159.54C959.766 159.54 963.33 155.976 963.33 151.58V91.18C963.33 86.7838 959.766 83.22 955.37 83.22C950.974 83.22 947.41 86.7838 947.41 91.18V151.58Z" fill="#F1CF97"/>
<path id="Vector_8" opacity="0.5" d="M963.33 144.44C963.33 148.836 966.894 152.4 971.29 152.4C975.686 152.4 979.25 148.836 979.25 144.44V98.31C979.25 93.9138 975.686 90.35 971.29 90.35C966.894 90.35 963.33 93.9138 963.33 98.31V144.44Z" fill="#F1CF97"/>
</g>
<g id="Group_2" opacity="0.5">
<path id="Vector_9" opacity="0.5" d="M799.46 186.64H841C845.509 186.64 849.833 188.431 853.021 191.619C856.209 194.807 858 199.131 858 203.64V275H782.5V203.64C782.5 199.138 784.286 194.82 787.465 191.633C790.644 188.446 794.958 186.651 799.46 186.64Z" fill="#F1CF97"/>
<path id="Vector_10" opacity="0.5" d="M825.73 268.59H814.68V305.42H825.73V268.59Z" fill="#F1CF97"/>
<path id="Vector_11" opacity="0.5" d="M803.63 310.02H792.58V346.85H803.63V310.02Z" fill="#F1CF97"/>
<path id="Vector_12" opacity="0.5" d="M849.67 310.02H838.62V346.85H849.67V310.02Z" fill="#F1CF97"/>
<path id="Vector_13" opacity="0.5" d="M857.96 302.65H782.46V312.78H857.96V302.65Z" fill="#F1CF97"/>
</g>
<path id="Vector_14" opacity="0.1" d="M473.09 608.33C701.913 608.33 887.41 594.728 887.41 577.95C887.41 561.172 701.913 547.57 473.09 547.57C244.267 547.57 58.77 561.172 58.77 577.95C58.77 594.728 244.267 608.33 473.09 608.33Z" fill="#F1CF97"/>
<path id="Vector_15" d="M580.36 469.76C580.36 469.76 608.9 482.65 622.71 482.65C622.71 482.65 637.44 486.33 645.71 490.02C653.98 493.71 686.22 495.54 686.22 495.54C686.22 495.54 723.97 509.35 728.57 515.8C733.17 522.25 746.98 492.8 746.98 492.8L739.61 474.39L600.61 447.69L580.36 469.76Z" fill="#FFB9B9"/>
<path id="Vector_16" d="M721.23 510.28C721.23 510.28 738.72 533.28 731.36 547.11C724 560.94 726.76 560.92 731.36 561.84C735.96 562.76 761.74 568.29 764.51 548.03C767.28 527.77 772.8 482.66 772.8 482.66L735 478.97C735 478.97 745.17 513.04 721.23 510.28Z" fill="#737A9D"/>
<path id="Vector_17" d="M503.94 439.38L583.12 476.21C583.12 476.21 607.98 456.87 606.12 446.75L514.05 424.65L503.94 439.38Z" fill="#4C4C78"/>
<path id="Vector_18" d="M836.32 487.26L828 507.51L808.7 512.09C803.292 507.577 797.508 503.535 791.41 500.01C781.02 494.01 767.35 488.14 754.41 489.07C754.41 489.07 702.85 480.78 700.09 477.07C700.09 477.07 666.94 469.7 659.58 470.62C656.03 471.06 648.4 468.51 641.46 465.74C634.01 462.74 627.35 459.57 627.35 459.57L651.29 421.82C654.082 423.022 656.956 424.024 659.89 424.82C669.04 427.5 685.51 430.98 709.3 430.98C747.97 430.98 801.37 470.57 801.37 470.57C801.37 470.57 801.9 470.75 802.81 471.02C806.81 472.23 818.21 475.08 823.47 470.57C829.87 465.16 836.32 487.26 836.32 487.26Z" fill="#FFB9B9"/>
<path id="Vector_19" opacity="0.1" d="M836.32 487.26L828 507.51L808.7 512.09C803.292 507.577 797.508 503.535 791.41 500.01C819.49 502.12 802.72 471.12 802.72 471.12H802.78C806.78 472.33 818.18 475.18 823.44 470.67C829.87 465.16 836.32 487.26 836.32 487.26Z" fill="black"/>
<path id="Vector_20" d="M791.52 500.79C791.52 500.79 813.79 532.02 804.42 549.61C795.05 567.2 798.56 567.19 804.42 568.37C810.28 569.55 843.11 576.58 846.62 550.79C849.32 530.96 846.95 492.9 845.71 476.38C845.631 475.337 845.345 474.32 844.869 473.389C844.394 472.458 843.738 471.63 842.939 470.955C842.141 470.279 841.216 469.769 840.219 469.454C839.222 469.139 838.172 469.026 837.13 469.12L804.56 472.12C804.56 472.12 822 504.31 791.52 500.79Z" fill="#737A9D"/>
<path id="Vector_21" d="M262.71 531.45L263.63 576.57L273.76 583.93H308.75L315.19 574.73V531.45L305.06 522.24H271.92L262.71 531.45Z" fill="#F1CF97"/>
<path id="Vector_22" d="M343.73 528.69L351.1 521.32H386.1L393.47 528.69C393.47 528.69 402.68 555.39 395.31 572.88L387 581.17H352L343.71 573.8L343.73 528.69Z" fill="#F1CF97"/>
<path id="Vector_23" d="M315.19 375.85C315.19 375.85 318.87 411.76 318.87 416.36C318.87 420.96 317.03 451.36 322.55 480.81C328.07 510.26 318.87 547.09 318.87 547.09H349.25L362.14 447.65L352.93 395.17L349.25 378.6L315.19 375.85Z" fill="#FFB9B9"/>
<path id="Vector_24" d="M309.67 284.7C309.67 284.7 269.16 285.62 301.38 352.83C301.38 352.83 309.67 380.45 309.67 385.06C309.67 389.67 351.1 389.66 355.67 385.06C360.24 380.46 348.3 342.71 348.3 325.21C348.3 307.71 336.37 279.18 309.67 284.7Z" fill="#CBCDDA"/>
<path id="Vector_25" d="M260.87 245.09C260.87 245.09 295.87 282.84 325.32 255.22L321.64 352.82C321.64 352.82 273.76 294.82 240.64 299.42L260.87 245.09Z" fill="#FFB9B9"/>
<path id="Vector_26" d="M657.7 419.09C657.7 419.09 654.94 464.21 632.84 467.89L499.36 443.81C492.882 442.633 486.791 439.886 481.62 435.81C476.23 431.57 469.62 425.81 465.71 420.53C463.59 417.65 462.31 414.9 462.52 412.63C463.44 402.5 503.95 378.56 490.14 336.21C492.103 334.655 494.287 333.402 496.62 332.49C508.15 327.7 534.69 324.18 573 363.83C573 363.88 643.89 420.97 657.7 419.09Z" fill="#4C4C78"/>
<path id="Vector_27" d="M296.78 535.13L297.7 580.25L307.82 587.62H342.81L349.26 578.41V535.13L339.13 525.93H305.98L296.78 535.13Z" fill="#F1CF97"/>
<path id="Vector_28" opacity="0.2" d="M302.3 536.09C302.3 536.09 308.75 577.52 302.3 581.21L297.7 580.29L296.78 536.09H302.3Z" fill="white"/>
<path id="Vector_29" d="M398.06 531.45L405.43 524.08H440.43L447.8 531.45C447.8 531.45 457.01 558.15 449.64 575.64L441.35 583.93H406.35L398.06 576.56V531.45Z" fill="#F1CF97"/>
<path id="Vector_30" opacity="0.2" d="M406.34 533.29C406.34 533.29 413.71 565.52 406.34 576.56H398.05V531.45L406.34 533.29Z" fill="white"/>
<path id="Vector_31" d="M349 548.95H398.81C402.71 548.95 405.87 552.45 405.87 556.78C405.87 561.1 402.71 564.61 398.81 564.61H349C344.77 564.61 341.49 560.52 342 555.87C342.41 551.92 345.43 548.95 349 548.95Z" fill="#F1CF97"/>
<path id="Vector_32" d="M286.19 316.46C286.19 316.46 300 330.27 313.35 339.02C325.67 347.09 303.68 265.82 303.68 265.82C303.68 265.82 317.32 254.82 325.33 248.29C330.679 243.889 337.495 241.674 344.41 242.09C362.84 243.28 396.6 251.03 423.84 288.39C463.43 342.71 499.34 331.66 499.34 331.66C499.34 331.66 507.63 392.43 489.21 405.32C470.79 418.21 450.54 422.81 454.21 430.18C457.88 437.55 437.64 394.27 391.6 386.91C345.56 379.55 294.92 347.32 295.85 331.67C295.86 331.66 282.51 321.09 286.19 316.46Z" fill="#CBCDDA"/>
<path id="Vector_33" opacity="0.1" d="M276.52 269.09C276.515 266.428 276.281 263.772 275.82 261.15C263.76 255.15 265.47 246.99 265.47 246.99L245.21 301.31C252.62 300.31 260.77 302.39 268.95 306.31C279.72 297.8 276.52 283.78 276.52 269.09Z" fill="black"/>
<path id="Vector_34" d="M236.01 314.17C261.437 314.17 282.05 293.557 282.05 268.13C282.05 242.703 261.437 222.09 236.01 222.09C210.583 222.09 189.97 242.703 189.97 268.13C189.97 293.557 210.583 314.17 236.01 314.17Z" fill="#FFB9B9"/>
<path id="Vector_35" d="M193.17 277.5C192.32 280.23 191.01 283.04 188.54 284.5C185.54 286.28 181.4 285.4 178.73 283.1C176.06 280.8 174.62 277.36 173.87 273.92C172.79 268.939 172.962 263.768 174.37 258.87C175.57 254.72 177.64 250.87 178.51 246.62C179.44 242.1 178.97 237.37 180.01 232.87C181.42 226.77 185.44 221.66 189.36 216.77C190.588 214.903 192.181 213.304 194.042 212.067C195.902 210.83 197.994 209.98 200.19 209.57L219.46 203.76C223.114 202.54 226.868 201.646 230.68 201.09C235.581 200.588 240.532 201.023 245.27 202.37C249.043 203.319 252.623 204.916 255.85 207.09C259.047 209.465 261.863 212.315 264.2 215.54C274.39 228.86 280.2 250.65 290.71 263.76C286.56 265.04 282.41 260.76 278.26 262.06C277.67 262.314 277.013 262.367 276.39 262.21C275.765 261.879 275.274 261.342 275 260.69C271.343 254.301 265.587 249.376 258.71 246.75C253.61 244.82 246.71 244.83 243.92 249.51C242.03 252.67 242.79 256.66 243.29 260.31C243.79 263.96 243.7 268.31 240.81 270.56C239.213 271.639 237.354 272.268 235.43 272.38C226.461 273.556 217.341 272.663 208.77 269.77C205.77 268.77 202.72 265.64 199.55 266.64C195.29 267.98 194.3 273.87 193.17 277.5Z" fill="#B96B6B"/>
<g id="Group_3" opacity="0.1">
<path id="Vector_36" opacity="0.1" d="M306.8 263.31L303.68 265.83C303.68 265.83 316.57 313.46 317.08 332.17C323.66 330.39 311 279.43 306.8 263.31Z" fill="black"/>
<path id="Vector_37" opacity="0.1" d="M491 397.95C472.59 410.84 452.33 415.44 456 422.81C459.67 430.18 439.43 386.9 393.39 379.54C350.2 372.63 302.96 343.84 298.04 327.38C291.14 321.48 286.12 316.47 286.12 316.47C282.44 321.07 295.79 331.66 295.79 331.66C294.87 347.31 345.51 379.54 391.54 386.9C437.57 394.26 457.83 437.54 454.15 430.17C450.47 422.8 470.72 418.17 489.15 405.31C494.42 401.62 497.5 394.01 499.22 385.02C497.44 390.71 494.8 395.32 491 397.95Z" fill="black"/>
</g>
<path id="Vector_38" d="M398.06 486.34C395.3 490.02 393.46 527.77 393.46 527.77C393.46 527.77 404.46 582.09 370.46 576.57C336.46 571.05 365.86 532.38 365.86 532.38L361.26 478.98C343.77 432.98 347.45 399.8 347.45 399.8L344.18 369.73L342.84 357.45L382.43 348.24C381.35 349.68 381.81 358.66 382.78 369.09C384.29 385.43 387.03 405.32 387.03 405.32C395.29 414.52 400.82 482.65 398.06 486.34Z" fill="#FFB9B9"/>
<path id="Vector_39" d="M340.05 265.37C340.05 265.37 299.54 266.29 331.76 333.5C331.76 333.5 340.05 361.12 340.05 365.73C340.05 370.34 381.48 370.33 386.05 365.73C390.62 361.13 378.68 323.38 378.68 305.88C378.68 288.38 366.75 259.84 340.05 265.37Z" fill="#CBCDDA"/>
</g>
</svg>
