<svg width="1153" height="772" viewBox="0 0 1153 772" fill="none" xmlns="http://www.w3.org/2000/svg">
<g id="login 1" clip-path="url(#clip0)">
<path id="Vector" opacity="0.1" d="M669.39 127.13C595.53 124.55 525.19 100.73 458.06 74.64C390.93 48.55 324.35 19.64 252.26 5.81998C205.84 -3.07002 152.81 -4.32001 115.45 20.55C79.5 44.47 67.88 85.77 61.64 124.08C56.94 152.91 54.18 183.26 67.05 210.24C75.99 228.98 91.86 244.73 102.84 262.68C141.06 325.12 114.06 402.13 72.65 463.11C53.23 491.71 30.71 519 15.73 549.45C0.750026 579.9 -6.17997 614.79 6.93003 645.85C19.93 676.63 50.88 699.76 84.42 716.02C152.54 749.02 232.81 758.51 311.08 763.87C484.35 775.72 658.54 770.59 832.27 765.45C896.56 763.55 961.14 761.62 1024.38 751.68C1059.51 746.16 1095.77 737.4 1121.27 716.24C1153.64 689.39 1161.66 643.92 1139.97 610.24C1103.59 553.76 1002.97 539.74 977.56 479.12C963.56 445.76 977.94 408.59 998.28 377.65C1041.92 311.27 1115.06 253.04 1118.92 177.16C1121.56 125.05 1086.4 72.87 1032.03 48.16C975.03 22.32 896.03 25.57 853.98 68.35C810.69 112.45 734.61 129.4 669.39 127.13Z" fill="#ECC88E"/>
<path id="Vector_2" d="M804.45 223.13C802.53 228.31 800.62 233.49 798.72 238.67C797.46 242.07 796.21 245.5 794.91 248.9C788.91 264.57 782.2 279.99 771.7 292.96C773.27 291.02 758.5 281.26 747.61 274.6C742.3 271.33 737.9 268.81 736.82 268.31C734.253 267.15 731.626 266.129 728.95 265.25C724.8 263.85 720.6 262.64 716.45 261.13C706.85 257.66 713.56 252.45 717.67 246.85C731.12 228.51 733.67 203.45 748.94 186.6C754.54 197.24 763.399 205.808 774.22 211.05C774.43 211.16 774.65 211.26 774.87 211.35C783.94 215.59 793.96 217.42 803.34 220.97C803.85 221.16 804.44 221.43 804.61 221.97C804.674 222.364 804.618 222.768 804.45 223.13Z" fill="#A1616A"/>
<path id="Vector_3" d="M778.34 593.55C773.996 599.774 771.292 606.993 770.479 614.539C769.666 622.085 770.771 629.714 773.69 636.72C774.428 638.678 775.577 640.454 777.06 641.93C778.948 643.405 781.147 644.431 783.49 644.93C803.35 650.58 824.55 649.47 844.89 645.93C851.78 644.87 858.552 643.145 865.11 640.78C875.18 636.93 884.17 630.78 893.05 624.64L911.83 611.7C917.91 607.51 924.04 603.3 930.83 600.36C941.23 595.87 952.75 594.58 964.08 594.59C973.812 594.602 983.522 595.529 993.08 597.36C999.45 598.59 1007.08 599.86 1011.56 595.21C1014.12 592.58 1014.88 588.73 1015.38 585.1C1017.36 570.976 1017.32 556.643 1015.27 542.53C1015.22 541.343 1014.79 540.203 1014.04 539.28C1013.33 538.681 1012.48 538.29 1011.56 538.15C1002.71 536.15 993.83 540.3 985.23 543.15C967.36 549.09 948.17 549.8 929.99 554.69C910.91 559.82 892.99 569.53 873.27 571.5C863.87 572.44 854.43 571.62 845.01 571.83C836.27 572.02 828.12 575.04 819.56 575.4C803.06 576.13 788.71 579.01 778.34 593.55Z" fill="#A1616A"/>
<path id="Vector_4" d="M794.48 572.41C794.01 574.62 793.59 576.96 794.25 579.12C795.069 581.244 796.452 583.104 798.25 584.5C815.25 599.72 839.54 602.87 862.25 605.34C868.4 606.01 874.66 606.68 880.75 605.57C886.3 604.57 891.48 602.12 896.59 599.7C907.59 594.49 918.65 589.22 928.08 581.56C937.33 574.06 944.75 564.46 954.33 557.39C965.22 549.39 978.61 544.81 988.33 535.39C995.357 528.61 1000.03 519.758 1001.66 510.13C1002.76 503.56 1002.4 496.85 1001.66 490.23C1000.87 482.62 999.6 474.88 995.98 468.14C991.79 460.34 984.75 454.45 977.32 449.61C961.6 439.39 943.09 433.05 924.32 433.21C898.32 433.44 874.32 448.57 855.66 465.56C835.922 483.555 819.948 505.283 808.66 529.49C802.287 543.199 797.529 557.602 794.48 572.41V572.41Z" fill="#464353"/>
<path id="Vector_5" d="M833.221 310.786C829.291 313.436 827.921 318.556 827.421 323.276C825.291 343.346 833.571 363.216 833.021 383.386C832.581 399.436 826.601 414.746 820.701 429.676C810.641 455.146 805.401 482.806 803.371 510.116C801.341 537.426 798.371 565.866 783.711 588.966C780.381 594.196 776.501 599.056 773.241 604.316C769.821 609.816 767.111 615.716 764.091 621.436C755.193 638.329 743.723 653.736 730.091 667.106C726.091 671.006 721.851 674.786 716.751 677.036C713.465 678.462 709.926 679.216 706.343 679.254C702.761 679.291 699.207 678.612 695.891 677.256C689.051 674.426 683.291 668.046 683.011 660.646C682.761 654.026 686.711 648.056 690.671 642.756C704.093 624.8 719.527 608.44 736.671 593.996C739.781 591.376 743.061 588.666 744.671 584.926C746.481 580.616 745.741 575.726 745.971 571.056C746.341 563.606 749.241 556.536 750.971 549.276C757.971 519.786 745.531 487.586 755.651 459.016C757.901 452.666 761.241 446.596 762.031 439.906C762.591 435.226 761.431 429.996 758.501 426.486C755.757 423.332 754.223 419.306 754.171 415.126C754.171 414.266 754.171 413.416 754.271 412.576C755.491 399.486 756.701 386.336 756.041 373.206C755.381 360.076 752.771 346.876 746.711 335.206C743.571 329.156 739.511 323.496 737.571 316.966C734.451 306.396 737.331 294.966 741.981 284.966C745.611 277.146 750.451 269.696 757.211 264.336C769.771 254.386 788.571 253.236 802.321 261.466C812.461 267.526 819.401 277.716 825.031 288.106C829.071 295.696 833.281 302.126 833.221 310.786Z" fill="#A1616A"/>
<path id="Vector_6" d="M686 620.97C687.118 622.545 687.877 624.347 688.222 626.248C688.568 628.148 688.492 630.102 688 631.97C691.568 634.532 695.905 635.795 700.29 635.55C704.642 635.313 708.921 634.328 712.94 632.64C716.435 631.366 719.744 629.63 722.78 627.48C728 623.62 731.78 618.1 734.78 612.38C736.47 609.22 737.91 605.13 735.78 602.29C734.943 601.326 733.923 600.538 732.78 599.97C725.075 595.575 717.053 591.761 708.78 588.56C706.509 587.513 704.041 586.961 701.54 586.94C698.47 587.11 695.68 588.79 693.24 590.67C687.756 594.935 683.334 600.411 680.32 606.67C679.38 608.67 676.54 613.42 677.95 615.48C678.59 616.43 680.95 616.76 681.95 617.36C683.54 618.263 684.92 619.494 686 620.97V620.97Z" fill="#FBBEBE"/>
<path id="Vector_7" d="M727.41 597.8C744.33 600.94 759.89 609.12 776.52 613.53C783.25 615.31 790.18 616.53 796.61 619.15C803.04 621.77 809.1 626.25 811.87 632.63C813.041 635.692 813.817 638.891 814.18 642.15C814.9 646.76 815.49 651.91 812.75 655.69C809.86 659.69 804.4 660.57 799.51 661.16C781.93 663.25 764.35 665.35 746.71 666.83C743.138 667.047 739.582 667.471 736.06 668.1C733.16 668.68 730.33 669.56 727.45 670.24C723.72 671.11 719.93 671.66 716.15 672.24C706.48 673.63 696.7 675.02 686.99 673.96C682.56 673.47 677.6 672.04 675.65 668.04C674.841 665.967 674.499 663.74 674.65 661.52C674.6 655.58 674.55 649.65 674.65 643.72C674.74 637.63 675.04 631.31 677.8 625.88C678.484 624.217 679.775 622.877 681.41 622.13C682.416 621.842 683.468 621.747 684.51 621.85C689.71 622.03 695.09 622.25 699.74 624.57C703.43 626.4 706.43 629.45 710.19 631.11C717.31 634.27 725.9 632 733.11 634.97C734.79 629.79 734.41 624.55 733.16 619.24C731.91 613.93 730.16 608.72 729.63 603.3C729.609 602.109 729.379 600.931 728.95 599.82C728.41 598.71 728.59 597.63 727.41 597.8Z" fill="#464353"/>
<path id="Vector_8" d="M162.2 427.29C158.79 426.21 155.5 429.23 153.59 432.29C145.65 444.77 146.3 461.43 152.65 474.79C154.161 478.178 156.245 481.28 158.81 483.96C162.25 487.35 166.68 489.52 170.81 491.96C182.27 498.73 192.091 507.95 199.57 518.96C204.46 526.17 208.31 534.1 213.86 540.81C227.52 557.33 249.97 564.81 263.22 581.61C266.39 585.61 269.07 590.25 273.3 593.16C275.815 594.889 278.745 595.915 281.789 596.133C284.833 596.35 287.879 595.751 290.614 594.398C293.349 593.044 295.673 590.985 297.346 588.432C299.019 585.88 299.98 582.928 300.13 579.88C305.28 572.31 309.49 563.95 313.5 555.71C319.433 543.133 324.446 530.142 328.5 516.84C329.99 512.14 331.43 507.41 333.33 502.84C338.02 491.56 345.49 481.35 348.13 469.43C349.19 464.65 349.45 459.68 350.99 455.04C352.369 450.875 354.729 447.103 357.87 444.04C368.27 433.93 373.87 419.2 382.14 407.3C385.5 402.49 388.99 397.69 391.21 392.25C393.43 386.81 394.28 380.58 392.21 375.08C390.14 369.58 384.73 365.14 378.87 365.45C376.247 365.722 373.703 366.503 371.38 367.75C363.304 371.582 355.896 376.687 349.44 382.87C346.617 385.587 343.946 388.458 341.44 391.47C329.22 406.07 319.66 423.79 318.82 442.81C318.54 449.33 319.06 456.56 314.92 461.61C303.5 475.56 299.83 494.74 290.09 509.92C285.58 516.92 280.41 524.17 272.7 527.36C271.561 527.908 270.301 528.156 269.04 528.08C265.96 527.73 264.19 524.49 262.89 521.67C257.81 510.671 251.931 500.06 245.3 489.92C242.68 485.92 239.79 481.82 235.6 479.47C232.74 477.88 229.42 477.17 226.73 475.31C222.98 472.72 221.02 468.31 219.07 464.18C212.75 450.841 204.748 438.366 195.26 427.06C190.92 421.89 185.2 416.55 178.5 417.32C172.12 418.07 168.22 424.78 162.2 427.29Z" fill="#FBBEBE"/>
<path id="Vector_9" d="M161.5 379.51C176.058 379.51 187.86 368.859 187.86 355.72C187.86 342.581 176.058 331.93 161.5 331.93C146.942 331.93 135.14 342.581 135.14 355.72C135.14 368.859 146.942 379.51 161.5 379.51Z" fill="#FBBEBE"/>
<path id="Vector_10" d="M164.96 355.72C185.013 355.72 201.27 351.373 201.27 346.01C201.27 340.647 185.013 336.3 164.96 336.3C144.907 336.3 128.65 340.647 128.65 346.01C128.65 351.373 144.907 355.72 164.96 355.72Z" fill="#FBBEBE"/>
<path id="Vector_11" d="M132.58 343.94C133.463 346.74 134.158 349.597 134.66 352.49C131.611 349.395 128.97 345.924 126.8 342.16C126.215 341.511 125.745 340.767 125.41 339.96C122.17 332.42 119.96 324.79 119.96 316.53C119.959 306.953 122.636 297.566 127.689 289.43C132.742 281.294 139.968 274.733 148.553 270.488C157.138 266.242 166.739 264.482 176.272 265.405C185.804 266.329 194.889 269.899 202.499 275.713C210.11 281.527 215.943 289.353 219.34 298.308C222.737 307.262 223.563 316.988 221.724 326.387C219.886 335.786 215.455 344.484 208.934 351.498C202.413 358.512 194.06 363.563 184.82 366.08C186.39 361.02 188.54 356.08 188.82 350.83C188.989 349.079 188.735 347.313 188.08 345.68C187.202 343.943 185.907 342.452 184.31 341.34C178.59 336.97 171.23 335.06 164.03 335.18C156.822 335.479 149.74 337.178 143.18 340.18C141.11 341.07 138.63 342.27 136.18 343.09C135.012 343.495 133.806 343.78 132.58 343.94V343.94Z" fill="#FBBEBE"/>
<path id="Vector_12" d="M262.83 456.32C259.54 461.59 252.51 463.2 246.33 462.73C234.81 461.88 224.33 455.73 215.43 448.33C206.53 440.93 198.75 432.33 189.65 425.21C172.72 411.94 153.65 406.61 132.11 406.3C136.32 402.81 134.77 394.53 135.11 389.09C135.85 378.09 136.55 366.8 135.11 355.96C134.96 354.79 134.79 353.64 134.59 352.49C134.93 352.85 135.29 353.2 135.66 353.56C142.066 359.707 149.953 364.091 158.556 366.285C167.159 368.479 176.183 368.408 184.75 366.08C184.199 367.822 183.768 369.599 183.46 371.4C182.22 379.13 184.3 386.97 186.35 394.54C187.57 399.07 189.02 403.93 192.75 406.76C195.17 408.6 198.22 409.32 201.09 410.29C206.811 412.24 212.092 415.298 216.63 419.29C219.79 422.06 222.63 425.29 226.02 427.7C229.244 429.74 232.64 431.493 236.17 432.94C244.833 436.938 253.018 441.899 260.57 447.73C261.995 448.619 263.104 449.935 263.74 451.49C263.927 452.315 263.942 453.169 263.786 453.999C263.629 454.83 263.304 455.62 262.83 456.32V456.32Z" fill="#FBBEBE"/>
<path id="Vector_13" d="M321.9 553.21C321.21 557.77 317.03 561.33 314.08 564.87C306.06 574.55 297.93 584.26 288.96 593.12C279.36 602.59 268.82 611.03 258.29 619.47L244.63 630.4C242.945 631.941 240.97 633.131 238.82 633.9C236.302 634.528 233.641 634.212 231.34 633.01C230.424 632.571 229.556 632.038 228.75 631.42C225.92 629.22 223.84 626.22 221.81 623.27C212.57 609.783 203.32 596.293 194.06 582.8C190.76 577.98 187.52 573.03 184.3 568.08C183.87 567.44 183.46 566.79 183.03 566.15C180.09 561.65 177.16 557.15 174.15 552.8L157.69 545.09L155.53 544.09L152.98 542.9C149.59 541.31 146.15 539.69 143.33 537.23C140.63 534.692 138.381 531.713 136.68 528.42C133.386 522.331 130.506 516.026 128.06 509.55C121.06 491.88 114.9 473.46 114.64 454.44C114.41 437.71 119.35 420.31 130.47 408.03C131.99 406.34 133.624 404.757 135.36 403.29C137.5 401.5 139.71 400.45 142.46 400.84C145.21 401.23 147.82 401.63 150.46 402.08C157.74 403.333 164.963 404.867 172.13 406.68C178.59 408.33 185.28 410.21 191.81 408.9C192.86 408.69 193.9 408.39 194.94 408.12C195.79 407.9 196.63 407.69 197.5 407.55C197.983 407.467 198.47 407.413 198.96 407.39C202.43 407.21 205.76 408.6 208.96 409.97C215.07 412.59 221.36 415.35 225.96 420.17C228.7 423.07 230.71 426.63 233.63 429.36C237.53 433.01 242.73 434.88 247.41 437.49C248.314 437.991 249.186 438.549 250.02 439.16C251.866 440.543 253.544 442.138 255.02 443.91V443.91C261.08 451.06 264.68 460.71 271.37 467.82C276.724 473.5 281.377 479.802 285.23 486.59C285.86 487.72 286.47 488.86 287.07 490.02C288.07 491.95 289 493.91 289.86 495.89C290.08 496.4 290.3 496.89 290.5 497.42C291.758 500.416 292.857 503.477 293.79 506.59C296.06 514.14 297.57 522.29 302.61 528.35C306.13 532.56 311.01 535.35 315.12 538.98C317.767 541.222 319.849 544.055 321.2 547.25C321.942 549.143 322.183 551.196 321.9 553.21Z" fill="#FBBEBE"/>
<path id="Vector_14" d="M197.54 407.55C214.146 419.479 231.686 430.05 249.99 439.16L252.9 440.61C258.5 443.35 264.33 446.07 268.58 450.61C270.971 453.374 272.988 456.44 274.58 459.73C278.67 467.449 282.157 475.473 285.01 483.73C285.65 485.56 286.4 487.57 288.1 488.51C289.8 489.45 292.5 489.38 294.01 490.8C292.65 492.5 291.27 494.18 289.84 495.8C279.317 508.119 267.266 519.047 253.98 528.32C245.76 534.06 237.09 539.15 228.44 544.23L212.44 553.6C205.75 557.52 198.97 561.48 191.55 563.74C188.76 564.59 185.81 565.23 182.98 566.05C180.04 561.55 177.11 557.05 174.1 552.7L155.48 543.98C165.48 538.32 174.2 530.27 181.48 521.32C191.48 509 199.17 494.94 206.75 480.97C208.092 478.714 209.137 476.294 209.86 473.77C210.86 469.58 210.02 465.17 208.79 461.05C204.285 446.325 194.846 433.601 182.06 425.02C173.06 419.02 162.82 415.38 152.64 411.85C145.53 409.4 137.74 407.01 130.51 408.03C132.03 406.34 133.664 404.757 135.4 403.29C137.54 401.5 139.75 400.45 142.5 400.84C145.25 401.23 147.86 401.63 150.5 402.08C155.85 403.73 161.11 405.69 166.34 407.71C169.782 408.967 173.125 410.481 176.34 412.24C179.542 414.195 182.618 416.349 185.55 418.69C194.235 425.284 203.378 431.253 212.91 436.55C223.91 442.63 235.46 447.6 247 452.55C248.224 453.179 249.574 453.521 250.95 453.55C251.64 453.552 252.311 453.323 252.855 452.899C253.399 452.474 253.784 451.88 253.95 451.21C253.995 450.485 253.828 449.762 253.47 449.13C251.47 445.04 246.93 442.97 242.82 440.99C225.76 432.73 210.76 420.83 195.92 408.99C195.557 408.708 195.239 408.37 194.98 407.99L197.54 407.55Z" fill="#F1CF97"/>
<path id="Vector_15" d="M337.65 461.84C372.317 461.84 400.42 433.737 400.42 399.07C400.42 364.403 372.317 336.3 337.65 336.3C302.983 336.3 274.88 364.403 274.88 399.07C274.88 433.737 302.983 461.84 337.65 461.84Z" fill="#F1CF97"/>
<path id="Vector_16" d="M400.06 648.89C411.81 645.2 423.74 641.44 434.06 634.69C441.31 629.95 447.56 623.85 454.14 618.21C459.09 613.97 464.25 609.97 468.79 605.29C472.857 600.91 476.664 596.296 480.19 591.47C488.217 580.963 496.507 570.657 505.06 560.55C509.65 555.16 514.5 549.67 520.91 546.67C532.3 541.32 545.67 544.93 557.69 548.6C575.69 554.1 593.6 559.93 610.44 568.3C620.02 573.07 629.3 578.39 638.97 582.96C656.65 591.31 675.42 597.04 694.12 602.74C695.509 603.331 697.053 603.458 698.52 603.1C699.569 602.619 700.47 601.866 701.13 600.92C703.568 597.908 705.522 594.534 706.92 590.92C707.186 590.51 707.286 590.013 707.199 589.532C707.111 589.05 706.844 588.621 706.45 588.33C698.45 580.54 688.07 575.75 678.37 570.2C670.65 565.79 663.26 560.84 655.88 555.89C648.79 551.14 641.64 546.34 635.69 540.23C632.69 537.14 629.99 533.73 626.74 530.91C623.869 528.561 620.827 526.429 617.64 524.53C603.385 515.427 589.779 505.346 576.92 494.36C567.14 486 559.13 475.23 548.68 467.73C542.27 463.13 534.81 458.94 526.97 459.78C517.43 460.78 510.39 468.78 503.74 475.68C481.39 498.89 453.19 515.5 428.25 535.91C407.89 552.55 388.86 572.32 364.06 581.1C365.17 584.78 365.56 588.46 366.68 592.1C368.076 597.16 369.816 602.118 371.89 606.94C373.946 611.21 376.26 615.351 378.82 619.34L388.76 635.57C390.76 638.87 392.85 642.22 395.71 644.84C397.21 646.28 400.06 646.8 400.06 648.89Z" fill="#464353"/>
<path id="Vector_17" d="M673.82 629.84C674.936 631.416 675.694 633.218 676.039 635.118C676.385 637.019 676.31 638.972 675.82 640.84C679.374 643.409 683.701 644.683 688.08 644.45C692.441 644.209 696.728 643.228 700.76 641.55C704.253 640.271 707.562 638.536 710.6 636.39C715.83 632.53 719.6 627.01 722.65 621.28C724.34 618.13 725.78 614.04 723.6 611.2C722.768 610.231 721.747 609.442 720.6 608.88C712.911 604.488 704.905 600.674 696.65 597.47C694.378 596.425 691.911 595.87 689.41 595.84C686.33 596.01 683.54 597.7 681.1 599.58C675.62 603.846 671.201 609.322 668.19 615.58C667.25 617.58 664.41 622.34 665.81 624.4C666.45 625.35 668.81 625.68 669.81 626.27C671.382 627.167 672.748 628.383 673.82 629.84V629.84Z" fill="#FBBEBE"/>
<path id="Vector_18" d="M719.61 606.18C736.53 609.33 752.09 617.5 768.72 621.91C775.45 623.69 782.38 624.91 788.81 627.53C795.24 630.15 801.3 634.63 804.07 641.01C805.24 644.073 806.016 647.272 806.38 650.53C807.1 655.14 807.69 660.29 804.95 664.07C802.06 668.07 796.6 668.96 791.71 669.54C774.13 671.64 756.55 673.73 738.91 675.21C735.346 675.432 731.796 675.856 728.28 676.48C725.38 677.07 722.55 677.94 719.67 678.62C715.95 679.5 712.15 680.04 708.37 680.62C698.7 682 688.92 683.4 679.21 682.33C674.78 681.84 669.82 680.41 667.87 676.41C667.061 674.337 666.719 672.11 666.87 669.89C666.87 663.96 666.77 658.02 666.87 652.09C666.96 646 667.26 639.68 670.02 634.25C670.707 632.589 671.997 631.25 673.63 630.5C674.636 630.212 675.688 630.117 676.73 630.22C681.93 630.4 687.31 630.62 691.96 632.94C695.65 634.77 698.31 629.3 702.07 630.94C709.2 634.09 704.37 624.54 711.57 627.51C713.25 622.33 720.39 625.41 719.15 620.1C717.91 614.79 722.36 617.1 721.85 611.64C721.828 610.449 721.598 609.271 721.17 608.16C720.61 607.09 720.79 606.01 719.61 606.18Z" fill="#464353"/>
<path id="Vector_19" d="M219.95 259.33C217.38 253.38 211.95 249.16 206.37 245.85C195.37 239.29 182.71 235.17 169.87 235C163.391 235.002 156.93 235.672 150.59 237C144.411 238.105 138.357 239.823 132.52 242.13C122.887 246.136 114.373 252.423 107.71 260.45C106.31 260.556 104.922 260.78 103.56 261.12C98.1197 262.48 93.2197 265.47 88.7497 268.86C85.009 271.57 81.6868 274.814 78.8897 278.49C75.616 283.184 73.3517 288.506 72.2397 294.12C68.4297 311.68 73.1197 329.8 76.5597 347.43C79.9997 365.06 82.0097 384.32 73.5597 400.16C70.3697 406.16 65.8397 411.26 62.4397 417.1C59.0397 422.94 56.7797 429.97 58.7097 436.45C61.0097 444.33 68.7497 449.33 72.7897 456.42C75.2639 461.058 76.147 466.38 75.3033 471.568C74.4597 476.757 71.9359 481.525 68.1197 485.14C74.4697 487.34 81.5397 484.97 87.2597 481.45C91.7949 478.809 95.6533 475.149 98.5297 470.76C105.72 459.12 102.53 444.09 105.03 430.64C108.36 413.04 121.8 397.34 119.95 379.52C118.7 367.52 110.78 357.57 104.55 347.28C100.394 340.418 96.9016 333.175 94.1197 325.65C92.1197 320.28 90.4997 314.51 91.4897 308.87C91.8173 307.148 92.3441 305.47 93.0597 303.87C93.0597 304.06 93.0597 304.25 93.0597 304.44C93.1736 309.62 94.3371 314.723 96.4797 319.44C103.92 334.64 123.73 340.24 132.12 354.93C134.57 352.26 137.12 349.46 138.12 345.98C139 342.88 138.55 339.58 138.68 336.36C139.03 327.36 144.5 318.88 152.16 314.24C155.675 312.126 159.539 310.653 163.57 309.89C168.19 309.06 173.29 309.69 176.57 305.54C178.97 302.54 178.91 298.28 179.48 294.44C179.987 291.008 181.065 287.686 182.67 284.61C183.472 282.805 184.786 281.275 186.45 280.21C187.727 279.59 189.113 279.223 190.53 279.13C194.45 278.642 198.4 278.438 202.35 278.52C206.92 278.63 211.81 279.04 215.73 276.69C221.25 273.33 222.52 265.33 219.95 259.33Z" fill="#464353"/>
<path id="Vector_20" opacity="0.06" d="M774.87 211.35C774.87 211.49 774.87 211.62 774.87 211.76C773.06 227.36 758.06 226.64 754.56 251.22C753.18 260.85 738.56 262.63 728.95 265.22C724.8 263.82 720.6 262.61 716.45 261.1C706.85 257.63 713.56 252.42 717.67 246.82C731.12 228.48 733.67 203.42 748.94 186.57C754.54 197.21 763.399 205.778 774.22 211.02C774.43 211.16 774.65 211.26 774.87 211.35Z" fill="black"/>
<path id="Vector_21" d="M775.22 202.4C775.219 204.766 775.085 207.129 774.82 209.48C772.978 225.716 764.877 240.595 752.239 250.953C739.601 261.311 723.422 266.332 707.14 264.95C690.858 263.568 675.757 255.891 665.046 243.55C654.335 231.21 648.858 215.179 649.78 198.864C650.702 182.55 657.949 167.238 669.982 156.182C682.015 145.127 697.885 139.199 714.219 139.66C730.553 140.12 746.063 146.932 757.454 158.648C768.845 170.364 775.219 186.059 775.22 202.4V202.4Z" fill="#A1616A"/>
<path id="Vector_22" d="M800.47 209.42C807.66 209.07 814.57 211.89 821.21 214.66C847.54 225.66 874.09 236.75 897.62 252.9C909.22 260.9 919.97 269.98 930.7 279.09L974.79 316.55C983.26 323.74 991.79 331 998.59 339.8C1002.59 345.227 1006.24 350.906 1009.52 356.8L1016.06 367.95C1018.74 372.314 1021.08 376.878 1023.06 381.6C1026.42 390.21 1027.67 400.25 1034.45 406.54C1039 410.77 1045.27 412.49 1050.83 415.28C1056.39 418.07 1061.83 422.97 1061.74 429.19C1061.74 433.19 1059.32 436.79 1057.5 440.39C1053.73 447.913 1052.15 456.343 1052.94 464.72L980.84 409.62C977.97 407.43 974.97 405.17 971.44 404.43C966.86 403.43 962.19 405.16 957.77 406.72C922.925 419.008 885.897 423.876 849.06 421.01C832.77 419.73 816.23 416.8 801.97 408.83C794.08 404.43 787.1 398.6 780.17 392.83C771.52 385.59 762.84 378.33 755.17 370.05C753.17 367.84 751.09 365.41 750.58 362.45C750.2 360.31 750.67 358.13 750.85 355.97C752.11 340.8 739.51 328.17 735.67 313.44C733.964 306.494 734.2 299.213 736.354 292.393C738.507 285.573 742.495 279.476 747.88 274.77C756.47 282.29 756.16 295.5 755.16 306.87C753.81 322.18 758.09 329.77 756.74 345.09C762.18 344.89 761.19 348.39 763.51 343.46C765.83 338.53 766.28 332.97 766.72 327.54C768.327 307.9 770.277 288.293 772.57 268.72C773.71 258.93 775.01 249.16 776.26 239.38C777.02 233.43 776.92 227.87 780.06 222.59C784.42 215.28 791.83 209.83 800.47 209.42Z" fill="#F1CF97"/>
<path id="Vector_23" d="M809.88 227.26C814.46 225.82 819.39 227.14 823.99 228.51C832.123 230.923 840.21 233.473 848.25 236.16C854.82 238.35 861.48 240.7 867.04 244.83C872.81 249.11 877.04 255.06 881.23 260.91C884.23 265.12 887.23 269.38 889.23 274.16C891.83 280.42 892.53 287.28 893.23 294.02C893.689 296.929 893.652 299.894 893.12 302.79C892.181 305.935 890.528 308.82 888.29 311.22C884.847 315.295 880.856 318.872 876.43 321.85C864.66 329.77 850.43 333.07 836.57 335.98C824.2 338.57 811.74 340.98 799.12 341.76C794.21 342.07 788.51 341.76 785.51 337.88C784.656 336.67 783.983 335.343 783.51 333.94C776.136 314.411 772.944 293.551 774.14 272.71C774.249 268.911 774.836 265.141 775.89 261.49C776.928 258.568 778.216 255.741 779.74 253.04C783.53 245.87 787.52 238.45 794.05 233.65C800.88 228.65 809.73 227.07 818.2 227.39" fill="#A1616A"/>
<path id="Vector_24" opacity="0.06" d="M855.95 301.42C852.02 304.07 850.65 309.19 850.15 313.91C848.02 333.98 856.3 353.85 855.75 374.02C855.31 390.02 849.33 405.38 843.43 420.31C833.37 445.78 828.13 473.44 826.1 500.75C824.07 528.06 821.1 556.5 806.44 579.6C803.11 584.83 799.23 589.69 795.97 594.95C792.55 600.45 789.84 606.35 786.82 612.07C777.922 628.963 766.452 644.371 752.82 657.74C748.82 661.64 744.58 665.42 739.48 667.67C736.193 669.096 732.655 669.85 729.072 669.888C725.49 669.926 721.936 669.246 718.62 667.89C711.78 665.06 706.02 658.68 705.74 651.28C705.49 644.66 709.44 638.69 713.4 633.39C726.822 615.434 742.256 599.074 759.4 584.63C762.51 582.01 765.79 579.3 767.4 575.56C769.21 571.25 768.47 566.36 768.7 561.69C769.07 554.24 771.97 547.17 773.7 539.91C780.7 510.42 768.26 478.22 778.38 449.65C780.63 443.3 783.97 437.23 784.76 430.54C785.32 425.86 784.15 420.63 781.23 417.12C778.487 413.965 776.95 409.94 776.89 405.76C776.89 404.9 776.89 404.05 777 403.21C778.22 390.12 779.43 376.97 778.77 363.84C778.11 350.71 775.5 337.51 769.44 325.84C766.3 319.79 762.24 314.13 760.3 307.6C757.18 297.03 760.06 285.6 764.71 275.6C768.34 267.78 773.18 260.33 779.94 254.97C792.5 245.02 811.3 243.87 825.05 252.1C835.19 258.16 842.13 268.35 847.76 278.74C851.8 286.33 856.06 292.76 855.95 301.42Z" fill="black"/>
<path id="Vector_25" d="M858.23 301.42C854.3 304.07 852.93 309.19 852.43 313.91C850.3 333.98 858.58 353.85 858.03 374.02C857.59 390.02 851.61 405.38 845.71 420.31C835.65 445.78 830.42 473.44 828.38 500.75C826.34 528.06 823.38 556.5 808.72 579.6C805.39 584.83 801.52 589.69 798.25 594.95C794.84 600.45 792.12 606.35 789.1 612.07C780.199 628.962 768.729 644.368 755.1 657.74C751.1 661.64 746.85 665.42 741.75 667.67C738.463 669.096 734.925 669.85 731.342 669.888C727.76 669.926 724.206 669.246 720.89 667.89C714.06 665.06 708.3 658.68 708.02 651.28C707.76 644.66 711.71 638.69 715.68 633.39C729.101 615.434 744.535 599.074 761.68 584.63C764.79 582.01 768.08 579.3 769.68 575.56C771.5 571.25 770.75 566.36 770.98 561.69C771.35 554.24 774.25 547.17 775.98 539.91C782.98 510.42 770.54 478.22 780.66 449.65C782.91 443.3 786.26 437.23 787.05 430.54C787.6 425.86 786.44 420.63 783.52 417.12C780.726 413.986 779.144 409.957 779.06 405.76C779.06 404.9 779.06 404.05 779.17 403.21C780.38 390.12 781.59 376.97 780.93 363.84C780.27 350.71 777.66 337.51 771.6 325.84C768.46 319.79 764.4 314.13 762.46 307.6C759.34 297.03 762.22 285.6 766.87 275.6C770.51 267.78 775.34 260.33 782.1 254.97C794.66 245.02 813.46 243.87 827.21 252.1C837.35 258.16 844.29 268.35 849.92 278.74C854.06 286.33 858.3 292.76 858.23 301.42Z" fill="#A1616A"/>
<path id="Vector_26" d="M959.36 562.55L958.5 562.81Z" fill="#464353"/>
<path id="Vector_27" d="M784.21 607.17C784.247 606.833 784.307 606.499 784.39 606.17Z" fill="#464353"/>
<path id="Vector_28" d="M998.61 538.55C1001.49 535.22 1005.93 533.73 1010.2 532.62C1017.08 530.841 1024.11 529.696 1031.2 529.2C1035.6 528.726 1040.05 529 1044.36 530.01C1048.62 531.18 1052.66 533.72 1054.82 537.57C1056.73 540.97 1057.03 545.01 1057.28 548.9C1057.8 556.9 1058.28 564.9 1056.96 572.78C1056.11 577.78 1054.52 582.62 1053.49 587.58C1050.15 603.84 1053.05 620.67 1052.75 637.27C1052.68 640.81 1052.45 644.44 1050.96 647.65C1049.37 651.06 1046.51 653.65 1043.72 656.21C1040.65 658.98 1037.53 661.77 1033.83 663.62C1028.35 666.37 1022.04 666.83 1015.91 667.02C1012.18 667.13 1008.34 667.14 1004.91 665.77C1001.48 664.4 998.39 661.32 998.14 657.59C997.74 651.26 1004.88 647.12 1006.92 641.12C1008.54 636.34 1006.68 631.06 1004.1 626.71C999.963 619.776 994.058 614.064 986.99 610.16C984.37 608.72 981.58 607.51 979.4 605.48C977.22 603.45 975.74 600.3 976.67 597.48C977.78 594.07 981.75 592.48 985.32 592.14C988.89 591.8 992.66 592.06 995.87 590.47C998.73 589.06 1000.72 586.34 1002.09 583.47C1005.01 577.344 1005.41 570.321 1003.22 563.9C1002.35 561.458 1001.1 559.171 999.5 557.13C998 555.21 994.92 553.59 993.85 551.49C991.95 547.71 996.06 541.55 998.61 538.55Z" fill="#F1CF97"/>
<path id="Vector_29" d="M940.053 391.03C923.533 376.43 900.513 372.46 878.903 368.03C867.777 365.757 856.707 363.224 845.693 360.43C838.453 358.59 831.183 356.63 823.693 356.12C816.203 355.61 808.483 356.66 802.063 360.48C795.643 364.3 790.793 371.22 790.763 378.69C790.763 381.69 791.463 384.63 791.243 387.6C790.903 392.38 788.193 396.6 786.433 401.07C783.668 408.137 783.248 415.906 785.233 423.23C788.423 434.9 797.643 445.18 796.853 457.23C795.513 477.4 795.923 498.48 800.063 518.23C804.203 537.98 809.373 557.82 809.253 578.03C809.133 598.24 802.973 619.42 787.873 632.86C798.099 642.458 810.603 649.29 824.203 652.71C835.833 655.62 849.673 655.33 857.943 646.66C859.863 644.66 861.453 641.99 861.053 639.24C860.641 637.505 859.912 635.861 858.903 634.39C853.213 624.2 853.903 611.64 856.423 600.26C858.943 588.88 863.253 577.82 864.353 566.2C865.143 557.77 864.243 549.2 865.863 540.88C867.093 534.51 869.783 528.51 871.383 522.22C876.133 503.56 871.153 483.97 866.183 465.38C870.333 474.93 878.183 482.38 886.313 488.86C898.633 498.68 913.523 507.35 929.183 505.61C943.123 504.05 954.993 494.36 963.183 482.99C963.243 469.84 967.803 457.41 966.993 444.29C966.471 438.527 965.44 432.822 963.913 427.24C962.393 421 960.813 414.7 957.913 408.97C954.193 401.45 946.433 396.66 940.053 391.03Z" fill="#A1616A"/>
<path id="Vector_30" d="M829.16 645.98C821.824 641.512 815.488 635.578 810.55 628.55C808.77 626.03 807.17 623.35 804.95 621.21C802.73 619.07 799.72 617.48 796.65 617.8C793.18 618.16 790.4 620.8 788.2 623.52C782.3 630.83 778.5 639.77 771.95 646.52C764.39 654.33 753.84 658.52 743.31 661.2C732.78 663.88 721.91 665.29 711.59 668.68C708.35 669.74 704.94 671.18 703.19 674.11C700.97 677.84 702.19 682.73 704.53 686.43C708.84 693.43 716.26 697.94 724 700.62C731.74 703.3 739.93 704.37 748 705.95C762.26 708.74 776.87 713.21 791.06 710.06C796.72 708.8 802.06 706.36 807.78 705.3C820.78 702.88 834.19 707.77 847.24 705.81C853.55 704.86 859.51 702.34 865.24 699.5C868.113 698.258 870.726 696.483 872.94 694.27C875.03 691.95 876.29 688.66 875.43 685.66C874.94 683.93 873.81 682.47 873.06 680.84C871.88 678.32 871.64 675.49 871.36 672.72C870.281 662.176 868.449 651.723 865.88 641.44C864.99 637.85 863.66 633.85 860.31 632.28C859.627 631.911 858.828 631.822 858.08 632.03C856.89 632.48 856.5 633.92 856.14 635.13C855.158 638.475 853.279 641.488 850.705 643.84C848.132 646.192 844.963 647.795 841.544 648.473C838.124 649.151 834.583 648.879 831.307 647.687C828.031 646.495 825.144 644.427 822.96 641.71" fill="#F1CF97"/>
<path id="Vector_31" d="M652.017 177.803C650.214 177.842 648.419 177.557 646.717 176.963C641.867 175.063 639.507 169.463 639.097 164.273C638.457 156.363 641.097 148.603 643.747 141.113C644.307 139.483 644.977 137.733 646.437 136.823C647.619 136.243 648.911 135.919 650.227 135.873C657.407 134.873 663.637 130.483 668.937 125.563C674.237 120.643 679.017 115.063 684.937 110.963C700.637 100.133 723.937 102.153 737.517 115.513C742.897 120.793 747.517 127.953 754.977 129.193C759.277 129.903 763.887 128.423 767.977 130.023C770.977 131.193 773.117 133.843 774.837 136.553C780.417 145.313 783.037 155.693 783.907 166.043C784.777 176.393 783.977 186.803 783.167 197.153C783.212 198.703 782.813 200.233 782.017 201.563C781.377 202.33 780.574 202.945 779.667 203.363C775.865 205.237 771.569 205.867 767.389 205.164C763.209 204.46 759.356 202.459 756.377 199.443C754.257 197.213 752.687 194.503 750.597 192.233C748.507 189.963 745.597 188.103 742.597 188.343C740.047 188.533 737.807 190.153 736.067 192.033C733.79 194.481 732.121 197.43 731.197 200.643C730.537 202.913 730.197 205.493 728.317 206.993C726.437 208.493 724.127 208.413 721.887 208.333C719.007 208.223 716.007 208.093 713.457 206.723C708.647 204.143 707.027 198.213 705.257 193.053C702.257 184.383 695.517 167.973 685.017 166.233C680.017 165.393 673.937 168.043 670.017 170.893C664.017 175.153 659.697 177.933 652.017 177.803Z" fill="#464353"/>
<path id="Vector_32" opacity="0.06" d="M321.9 553.21C321.21 557.77 317.03 561.33 314.08 564.87C306.06 574.55 297.93 584.26 288.96 593.12C279.36 602.59 268.82 611.03 258.29 619.47L244.63 630.4C242.945 631.941 240.97 633.131 238.82 633.9C236.302 634.528 233.641 634.212 231.34 633.01C231.54 632.61 231.75 632.24 231.98 631.87L248.36 604.42C251.58 599.04 253.69 594.14 257.36 589.09C262.89 581.53 268.47 573.93 275.28 567.52C283.89 559.41 294.93 553.52 305.17 547.66C306.65 543.22 312.85 541.99 317.04 544.09C318.593 544.895 319.991 545.968 321.17 547.26C321.921 549.148 322.172 551.197 321.9 553.21V553.21Z" fill="black"/>
<path id="Vector_33" d="M246.518 607.198L230.138 634.658C229.468 635.768 228.778 637.028 229.068 638.288C229.436 639.346 230.138 640.255 231.068 640.878C237.348 645.988 244.308 651.378 246.278 659.228C247.688 664.828 246.278 670.828 247.538 676.448C249.848 686.588 260.038 692.748 269.678 696.648C291.278 705.388 315.258 708.748 338.208 704.648C361.158 700.548 382.938 688.868 397.798 670.908C402.358 665.388 406.258 659.348 410.588 653.648C422.588 637.898 437.818 624.968 452.928 612.168C472.378 595.688 483.838 571.108 500.928 552.168C504.038 548.718 507.468 545.168 511.928 544.028C514.428 543.398 517.928 544.328 518.028 546.908C518.258 551.908 522.278 555.998 525.028 560.178C535.388 576.018 546.228 592.348 562.238 602.448C570.998 607.988 580.928 611.378 590.828 614.448C615.928 622.268 641.518 628.448 667.078 634.568C668.368 631.989 669.916 629.546 671.698 627.278C674.348 624.028 677.838 621.548 680.498 618.278C685.368 612.388 687.078 604.598 688.638 597.118C673.368 587.768 657.698 578.118 642.638 568.398C635.058 563.518 627.428 558.528 621.288 551.928C617.288 547.588 613.928 542.618 609.918 538.248C605.816 534.008 601.397 530.087 596.698 526.518L560.698 497.688C550.358 489.418 539.818 480.688 529.698 472.128C524.008 467.308 517.698 462.238 510.258 462.008C503.888 461.808 498.028 465.218 492.548 468.498C460.361 487.772 427.695 506.178 394.548 523.718C387.838 527.258 381.098 530.778 374.698 534.848C362.246 542.77 351.19 552.698 341.978 564.228C340.288 566.338 338.148 568.738 335.468 568.418C334.731 568.31 334.022 568.062 333.378 567.688C329.248 565.478 326.718 561.208 324.378 557.158C322.038 553.108 319.428 548.848 315.238 546.748C311.048 544.648 304.858 545.878 303.368 550.328C293.078 556.358 282.078 562.198 273.458 570.308C266.648 576.718 261.068 584.308 255.538 591.878C251.848 596.928 249.728 601.828 246.518 607.198Z" fill="#464353"/>
<path id="Vector_34" opacity="0.06" d="M222.67 438.07C222.67 438.07 239.14 445.38 250.95 453.63Z" fill="black"/>
<path id="Vector_35" d="M1047.53 453.1C1047.83 462.43 1048.07 471.78 1047.96 481.1C1047.9 486.04 1047.69 491.19 1045.32 495.52C1043.63 498.63 1040.96 501.06 1038.32 503.44L1021.85 518.37C1016.74 523 1011.23 527.83 1004.42 528.98C996.63 530.3 989.02 526.51 981.53 523.98C973.987 521.439 966.089 520.112 958.13 520.05C953.57 520.05 948.97 520.41 944.47 519.69C941.216 519.071 938.024 518.164 934.93 516.98L920.06 511.82C920.48 508.07 924.06 505.68 927.06 503.31C937.71 494.67 942.38 480.78 945.74 467.49C948.471 457.114 950.417 446.548 951.56 435.88C952.07 430.6 952.3 425.23 951.19 420.04C950.143 415.853 948.669 411.785 946.79 407.9L941.56 396.11C938.56 389.45 932.56 386.49 926.45 382.56C935.67 386.06 946.91 387.43 953.92 394.37C955.273 395.908 956.875 397.206 958.66 398.21C960.57 399.12 962.74 399.21 964.83 399.55C975.24 401.11 984.09 407.65 992.69 413.7C1003.22 421.113 1014.04 428.077 1025.15 434.59C1030.15 437.53 1035.31 440.42 1039.52 444.43C1043.73 448.44 1047.03 453.78 1047.3 459.59" fill="#464353"/>
<path id="Vector_36" opacity="0.06" d="M150.77 436.72C137.66 439.31 130.84 454.72 131.61 468.05C132.35 479.956 137.24 491.226 145.43 499.9C150.9 505.65 157.72 510.09 162.66 516.3C169.96 525.46 172.5 537.57 179.03 547.3C183.77 554.36 190.42 559.9 197.03 565.21C212.27 577.37 228.007 588.88 244.24 599.74C250.84 604.15 258.06 608.61 266 608.44C273.48 608.28 280.37 603.89 285.25 598.21C290.13 592.53 293.25 585.63 296.42 578.83C307.84 553.93 319.34 528.76 324.8 501.92C326.51 493.49 327.66 484.8 331.48 477.09C334.48 471.09 338.92 465.95 342.88 460.53C352.236 447.669 358.802 432.996 362.16 417.45C364.34 407.31 365.07 396.45 361.49 386.75C357.91 377.05 349.22 368.64 338.87 367.88C330.68 367.28 322.64 371.48 317.14 377.59C311.64 383.7 308.4 391.51 306.19 399.42C303.022 410.8 301.805 422.634 302.59 434.42C303.23 443.93 305.17 453.53 303.53 462.93C302.37 469.56 299.48 475.75 296.62 481.85C289.23 497.59 281.72 513.53 270.55 526.85C266.91 531.19 261.9 535.58 256.33 534.56C248.63 533.16 246.59 523.41 242.79 516.56C238.13 508.16 229.29 503.11 222.36 496.44C212.5 486.94 206.59 474.2 199.58 462.44C192.57 450.68 183.5 439.07 170.58 434.56C157.66 430.05 140.44 435.84 137.12 449.12" fill="black"/>
<path id="Vector_37" opacity="0.06" d="M160.66 445.85C147.54 448.44 130.84 450.13 131.66 463.48C132.392 475.388 137.283 486.661 145.48 495.33C150.95 501.09 157.77 505.53 162.71 511.74C170.01 520.9 172.55 533 179.08 542.74C183.82 549.81 190.47 555.35 197.08 560.65C212.32 572.817 228.057 584.327 244.29 595.18C250.89 599.6 258.11 604.06 266.05 603.89C273.53 603.73 280.42 599.33 285.3 593.66C290.18 587.99 293.3 581.08 296.47 574.27C307.89 549.37 319.39 524.2 324.85 497.36C326.56 488.94 327.71 480.24 331.53 472.54C334.53 466.54 338.97 461.4 342.93 455.97C352.287 443.113 358.854 428.443 362.21 412.9C364.39 402.75 365.12 391.9 361.54 382.19C357.96 372.48 349.27 364.09 338.92 363.32C330.73 362.72 322.69 366.93 317.19 373.03C311.69 379.13 308.45 386.95 306.24 394.87C303.071 406.249 301.854 418.084 302.64 429.87C303.28 439.39 305.22 448.99 303.58 458.38C302.42 465.02 299.53 471.21 296.67 477.31C289.28 493.05 281.77 508.98 270.6 522.31C266.96 526.65 261.95 531.03 256.38 530.02C248.68 528.61 246.64 518.86 242.84 512.02C238.18 503.62 229.34 498.57 222.41 491.9C212.55 482.41 206.64 469.66 199.63 457.9C192.62 446.14 183.55 434.54 170.63 430.02C157.71 425.5 173.89 454.45 170.56 467.73" fill="black"/>
<path id="Vector_38" d="M150.77 434.43C137.66 437.02 130.84 452.43 131.61 465.76C132.348 477.67 137.238 488.944 145.43 497.62C150.9 503.37 157.72 507.81 162.66 514.02C169.96 523.18 172.5 535.29 179.03 545.02C183.77 552.09 190.42 557.63 197.03 562.94C212.27 575.1 228.007 586.607 244.24 597.46C250.84 601.88 258.06 606.34 266 606.17C273.48 606.01 280.37 601.62 285.25 595.94C290.13 590.26 293.25 583.36 296.42 576.56C307.84 551.66 319.34 526.49 324.8 499.64C326.51 491.22 327.66 482.52 331.48 474.82C334.48 468.82 338.92 463.68 342.88 458.25C352.237 445.393 358.804 430.723 362.16 415.18C364.34 405.03 365.07 394.18 361.49 384.47C357.91 374.76 349.22 366.37 338.87 365.61C330.68 365 322.64 369.21 317.14 375.32C311.64 381.43 308.4 389.24 306.19 397.15C303.022 408.53 301.805 420.364 302.59 432.15C303.23 441.66 305.17 451.26 303.53 460.65C302.37 467.29 299.48 473.48 296.62 479.58C289.23 495.32 281.72 511.26 270.55 524.58C266.91 528.92 261.9 533.3 256.33 532.29C248.63 530.88 246.59 521.14 242.79 514.29C238.13 505.88 229.29 500.83 222.36 494.17C212.5 484.67 206.59 471.93 199.58 460.17C192.57 448.41 183.5 436.81 170.58 432.3C157.66 427.79 140.44 433.58 137.12 446.86" fill="#FBBEBE"/>
<g id="Group" opacity="0.06">
<path id="Vector_39" opacity="0.06" d="M100.66 354.55C96.5044 347.688 93.012 340.445 90.23 332.92L89.89 331.92C87.7797 329.655 86.005 327.099 84.62 324.33C82.4761 319.613 81.3126 314.51 81.2 309.33C81.2 309.14 81.2 308.95 81.2 308.76C80.4845 310.36 79.9576 312.038 79.63 313.76C78.63 319.4 80.28 325.16 82.26 330.54C85.0439 338.064 88.5363 345.307 92.69 352.17C98.9 362.55 106.83 372.55 108.06 384.46C109.91 402.28 96.47 417.97 93.15 435.58C90.61 449.03 93.83 464.06 86.64 475.7C83.7661 480.089 79.907 483.746 75.37 486.38C72.5244 488.193 69.409 489.544 66.14 490.38C65.5439 491.087 64.9025 491.755 64.22 492.38C70.57 494.58 77.64 492.21 83.36 488.69C87.8952 486.049 91.7536 482.389 94.63 478C101.82 466.36 98.63 451.33 101.13 437.88C104.46 420.28 117.9 404.58 116.05 386.76C114.81 374.78 106.89 364.79 100.66 354.55Z" fill="black"/>
<path id="Vector_40" opacity="0.06" d="M216.06 266.55C213.49 260.6 208.06 256.38 202.48 253.07C195.406 248.825 187.709 245.721 179.67 243.87C184.829 245.671 189.794 247.986 194.49 250.78C200.07 254.1 205.49 258.31 208.08 264.27C210.67 270.23 209.38 278.27 203.82 281.59C199.9 283.94 195.01 283.52 190.44 283.42C186.491 283.33 182.54 283.53 178.62 284.02C177.204 284.122 175.821 284.489 174.54 285.1C172.871 286.181 171.557 287.728 170.76 289.55C169.152 292.625 168.07 295.948 167.56 299.38C167 303.22 167.05 307.43 164.65 310.48C161.39 314.63 156.29 314 151.65 314.82C147.62 315.593 143.758 317.069 140.24 319.18C132.58 323.81 127.11 332.27 126.76 341.3C126.64 344.52 127.08 347.81 126.21 350.91C125.649 352.719 124.768 354.412 123.61 355.91C125.382 357.804 126.932 359.894 128.23 362.14C130.68 359.47 133.23 356.67 134.23 353.19C135.11 350.09 134.66 346.79 134.79 343.57C135.14 334.57 140.61 326.09 148.27 321.45C151.786 319.336 155.649 317.863 159.68 317.1C164.3 316.27 169.4 316.9 172.68 312.75C175.08 309.75 175.02 305.49 175.59 301.65C176.097 298.218 177.175 294.896 178.78 291.82C179.582 290.015 180.896 288.485 182.56 287.42C183.838 286.8 185.223 286.433 186.64 286.34C190.56 285.852 194.51 285.648 198.46 285.73C203.03 285.84 207.92 286.25 211.84 283.9C217.36 280.55 218.63 272.55 216.06 266.55Z" fill="black"/>
</g>
<path id="Vector_41" opacity="0.06" d="M150.58 362.1C150.58 362.1 162.39 372.26 184.82 366.1C184.82 366.08 170.93 371.55 150.58 362.1Z" fill="black"/>
<path id="Vector_42" d="M127.634 621.5C127.634 621.5 129.224 619.73 126.234 619.03V616.12H128.034C128.031 612.604 126.82 609.196 124.605 606.466C122.389 603.735 119.304 601.848 115.864 601.12V597.59H116.334V593H104.764V597.59H105.094V601.16C101.687 601.924 98.6417 603.826 96.4603 606.553C94.2789 609.279 93.0917 612.668 93.0944 616.16H94.6844V618.95C94.6844 618.95 90.8944 620.74 94.6844 623.95C98.4744 627.16 97.8844 629.48 97.8844 629.48C97.8844 629.48 96.2944 635.48 93.1044 636.26V691.89C93.1031 693.514 93.4219 695.122 94.0424 696.623C94.663 698.124 95.5732 699.487 96.7211 700.636C97.8689 701.785 99.2319 702.696 100.732 703.318C102.232 703.94 103.84 704.26 105.464 704.26H115.234C118.515 704.26 121.662 702.957 123.981 700.637C126.301 698.317 127.604 695.171 127.604 691.89V636.26C127.604 636.26 122.014 632.07 123.014 629.48C124.356 626.71 125.9 624.043 127.634 621.5V621.5Z" fill="#464353"/>
</g>
<defs>
<clipPath id="clip0">
<rect width="1152.12" height="771.1" fill="white"/>
</clipPath>
</defs>
</svg>
